<?xml version="1.0" encoding="UTF-8" standalone="no"?>
<!-- Created with Inkscape (http://www.inkscape.org/) -->

<svg
   width="1024mm"
   height="1024mm"
   viewBox="0 0 1024 1024"
   version="1.1"
   id="svg1"
   inkscape:export-filename="MACH.png"
   inkscape:export-xdpi="96"
   inkscape:export-ydpi="96"
   inkscape:version="1.4.2 (f4327f4, 2025-05-13)"
   sodipodi:docname="drawing-4.svg"
   xmlns:inkscape="http://www.inkscape.org/namespaces/inkscape"
   xmlns:sodipodi="http://sodipodi.sourceforge.net/DTD/sodipodi-0.dtd"
   xmlns="http://www.w3.org/2000/svg"
   xmlns:svg="http://www.w3.org/2000/svg">
  <sodipodi:namedview
     id="namedview1"
     pagecolor="#505050"
     bordercolor="#eeeeee"
     borderopacity="1"
     inkscape:showpageshadow="0"
     inkscape:pageopacity="0"
     inkscape:pagecheckerboard="0"
     inkscape:deskcolor="#505050"
     inkscape:document-units="px"
     inkscape:zoom="0.089864794"
     inkscape:cx="222.55657"
     inkscape:cy="2331.28"
     inkscape:window-width="1920"
     inkscape:window-height="1009"
     inkscape:window-x="-8"
     inkscape:window-y="-8"
     inkscape:window-maximized="1"
     inkscape:current-layer="layer1" />
  <defs
     id="defs1">
    <rect
       x="727.84207"
       y="2667.4428"
       width="1459.6185"
       height="900.95044"
       id="rect7" />
    <rect
       x="759.31632"
       y="2270.0804"
       width="775.05344"
       height="574.40509"
       id="rect3" />
    <rect
       x="639.85013"
       y="2231.1296"
       width="2609.4757"
       height="689.92536"
       id="rect1" />
  </defs>
  <g
     inkscape:label="Layer 1"
     inkscape:groupmode="layer"
     id="layer1">
    <path
       style="fill:#ffffff;stroke-width:5.30905;fill-opacity:1"
       d="m 509.05617,604.62792 c -0.7764,-0.56759 -11.19083,-12.72598 -23.14319,-27.01868 -11.9524,-14.29262 -27.0594,-32.3077 -33.5711,-40.03349 -6.5117,-7.72576 -25.34236,-30.25189 -41.84594,-50.058 -18.7688,-22.52469 -31.18173,-36.26838 -33.14452,-36.69789 -1.72592,-0.37747 -11.35542,-3.02528 -21.39891,-5.88369 -10.04349,-2.85838 -24.63523,-6.9671 -32.42609,-9.13048 -7.79081,-2.16335 -16.32431,-4.62711 -18.96323,-5.47501 -2.63896,-0.84786 -9.22288,-2.79643 -14.63087,-4.33012 -5.40806,-1.53373 -18.99836,-5.38789 -30.20077,-8.56486 -11.20234,-3.17695 -23.52845,-6.66922 -27.39132,-7.76061 -3.86286,-1.09136 -15.16725,-4.1488 -25.12075,-6.79434 -9.95354,-2.64556 -18.64864,-5.65898 -19.32248,-6.69646 -2.66248,-4.09955 -0.7249,-7.48683 4.53472,-7.92758 4.1813,-0.35039 5.43562,-1.24917 7.35186,-5.26757 l 2.3105,-4.84509 h 17.46671 17.46668 l 3.03854,4.91639 c 1.67117,2.70406 3.78838,4.91638 4.70487,4.91638 0.9165,0 3.88533,1.50781 6.59738,3.3507 4.29848,2.92093 8.6768,4.43412 25.21952,8.71622 1.93147,0.50013 30.06029,8.05091 62.50848,16.77988 32.44824,8.72896 61.43369,16.32197 64.41212,16.87337 3.90109,0.72223 14.30979,7.49696 37.22416,24.22819 17.49484,12.7741 40.50024,29.55482 51.12323,37.2905 l 19.31441,14.06484 v 48.21121 c 0,26.51618 -0.15829,48.20156 -0.35093,48.18972 -0.19325,-0.0104 -0.98642,-0.48577 -1.76283,-1.05353 z m 10.56362,-46.37715 c 0.0104,-26.0502 0.48578,-48.04436 1.05347,-48.87585 0.93385,-1.36804 21.82037,-16.93947 80.37309,-59.92 12.76448,-9.36973 22.17174,-15.27657 25.24907,-15.85386 2.69763,-0.50597 17.56281,-4.39925 33.03372,-8.65146 15.47092,-4.2523 31.28948,-8.55585 35.15235,-9.56351 70.17166,-18.30505 91.58367,-25.77822 96.83867,-33.79843 2.19443,-3.34906 2.73528,-3.44361 19.70313,-3.44361 h 17.44674 l 2.48931,4.21405 c 2.07983,3.52086 3.37841,4.21404 7.89418,4.21404 5.22796,0 5.3905,0.14598 4.9647,4.46142 -0.42949,4.35245 -0.76589,4.55531 -13.78467,8.3113 -30.41726,8.77548 -67.50731,19.54105 -79.0135,22.93401 -28.66667,8.45339 -37.05718,10.90691 -67.29298,19.67739 -17.50354,5.07725 -32.15439,9.23136 -32.55735,9.23136 -0.6625,0 -89.4792,105.81521 -116.82228,139.18068 -6.18062,7.54198 -12.02758,14.05778 -12.99329,14.47957 -1.3854,0.60508 -1.75135,-9.22694 -1.73436,-46.5971 z M 111.48935,369.67919 c -36.116789,-1.04954 -54.220009,-2.35143 -58.867589,-4.23343 -1.86087,-0.75356 -2.13997,-1.21406 -0.7835,-1.29281 1.15885,-0.0674 9.69233,-0.7193 18.96326,-1.44904 9.27093,-0.72967 39.592359,-2.01537 67.381009,-2.85706 l 50.52479,-1.53034 7.57983,-6.24011 7.57979,-6.24014 h 16.50543 c 17.85257,0 17.96182,0.0371 28.82409,9.92638 l 4.21405,3.83639 58.29442,2.32253 c 32.06195,1.27742 61.1389,2.68856 64.61551,3.1359 13.60008,1.74986 -1.5223,3.02202 -54.08041,4.54932 -56.88073,1.65298 -155.19918,1.68674 -210.75068,0.0722 z m 584.86182,-0.43321 c -24.46666,-0.90046 -44.91672,-2.07053 -45.44461,-2.60014 -1.68461,-1.69026 7.19731,-2.31418 67.45459,-4.73823 l 58.99676,-2.37329 8.19977,-6.84912 8.19975,-6.84904 h 16.42083 c 17.55965,0 18.72239,0.35942 27.58108,8.52128 l 4.21404,3.88268 38.62881,0.89304 c 41.5933,0.96152 86.17039,3.11613 94.11389,4.54893 l 4.9164,0.88683 -4.214,1.15866 c -14.7901,4.06667 -200.53984,6.40854 -279.06731,3.5184 z"
       id="path5" />
    <text
       xml:space="preserve"
       transform="matrix(0.26458333,0,0,0.26458333,0,52.387527)"
       id="text1"
       style="font-size:5.33333px;line-height:1;font-family:'Nirmala UI';-inkscape-font-specification:'Nirmala UI';text-align:center;writing-mode:lr-tb;direction:ltr;white-space:pre;shape-inside:url(#rect1);fill:#000000;stroke:#000000;stroke-width:0.0755906"><tspan
         x="1936.9642"
         y="2235.2663"
         id="tspan1">MACH</tspan></text>
    <text
       xml:space="preserve"
       transform="scale(0.26458333)"
       id="text3"
       style="fill:#000000;stroke-width:0.07559055;font-size:192px;-inkscape-font-specification:'Showcard Gothic';font-family:'Showcard Gothic';line-height:1;text-orientation:auto;text-align:center;stroke:#000000;writing-mode:lr-tb;direction:ltr;font-weight:normal;font-style:normal;font-stretch:normal;font-variant:normal;white-space:pre;shape-inside:url(#rect3)" />
    <path
       style="fill:#ffffff;stroke-width:1.97051;fill-opacity:1"
       d="m 194.56062,660.59305 c -0.89564,-0.89564 -0.90316,-50.23508 -0.008,-50.78846 0.33984,-0.21004 3.17346,-0.32291 6.29694,-0.25083 l 5.67906,0.13104 7.91028,5.69809 c 4.35064,3.13395 10.25639,7.37788 13.1239,9.43098 2.86751,2.05308 9.46699,6.861 14.66553,10.68427 5.19853,3.82324 9.67234,6.95138 9.94181,6.95138 0.4954,0 17.32336,-12.1483 25.96509,-18.74449 2.58074,-1.96989 7.95441,-5.94859 11.94149,-8.84156 l 7.2492,-5.25996 h 6.43663 6.43662 v 25.51177 25.51175 l -1.10626,0.35112 c -1.27909,0.40596 -8.76895,-0.19946 -8.86219,-0.71635 -0.0345,-0.19055 -0.12612,-7.61958 -0.20403,-16.50886 -0.23413,-26.7438 -0.15724,-24.91384 -1.03289,-24.57783 -0.42793,0.16414 -4.00579,2.6932 -7.95082,5.61999 -3.94501,2.92678 -9.87082,7.31117 -13.16845,9.7431 -3.29764,2.43193 -6.81684,5.04423 -7.82048,5.8051 -3.39683,2.5752 -15.89406,11.32261 -17.05659,11.93873 -1.03894,0.55062 -1.82448,0.13045 -7.82047,-4.18295 -3.66603,-2.63727 -10.41936,-7.48789 -15.00736,-10.77912 -4.58801,-3.29124 -11.0399,-8.0139 -14.33755,-10.4948 -7.99437,-6.01443 -10.75029,-7.86165 -11.14301,-7.4689 -0.17991,0.17991 -0.32701,9.39092 -0.32701,20.46907 0,14.9709 -0.1606,20.30269 -0.62564,20.7677 -0.37684,0.37686 -2.20132,0.62563 -4.588,0.62563 -2.38671,0 -4.21117,-0.24877 -4.58803,-0.62563 z m 178.72397,-0.33742 c 0,-0.52969 0.45588,-1.17487 1.01306,-1.43376 0.55718,-0.25886 2.25817,-1.64376 3.77998,-3.07751 2.88445,-2.71757 4.90057,-4.49082 10.07713,-8.86321 1.69744,-1.43375 4.97007,-4.25072 7.27251,-6.25989 2.30245,-2.0092 5.59396,-4.82286 7.31445,-6.25258 1.72052,-1.42975 3.94935,-3.32988 4.95297,-4.22254 3.76337,-3.34727 10.68934,-9.412 13.24946,-11.60191 1.45869,-1.24775 3.35602,-2.87076 4.21627,-3.60667 0.86026,-0.73591 2.55597,-2.2371 3.76826,-3.33602 2.08533,-1.8903 2.38891,-1.99801 5.63168,-1.99801 h 3.42751 l 12.6161,11.09544 c 6.93887,6.10248 15.06811,13.19956 18.06499,15.7713 11.72126,10.05841 26.36275,23.31441 26.52297,24.01318 0.13715,0.5983 -0.8967,0.73524 -5.55144,0.73524 h -5.72003 l -3.88891,-3.25853 c -2.1389,-1.7922 -6.67917,-5.73228 -10.08951,-8.75574 -3.41033,-3.02345 -12.18325,-10.7564 -19.49542,-17.18432 -7.31214,-6.4279 -13.75734,-12.11421 -14.32266,-12.63622 -0.56531,-0.522 -1.3186,-0.88326 -1.67397,-0.80279 -0.59233,0.1342 -18.52131,15.54419 -25.95025,22.30435 -1.73316,1.57714 -4.55888,4.03625 -6.27937,5.46469 -1.72052,1.42845 -4.54265,3.89188 -6.27142,5.47433 -1.72877,1.58243 -4.96865,4.3435 -7.19971,6.1357 l -4.05648,3.25853 h -5.70409 c -5.19919,0 -5.70408,-0.0853 -5.70408,-0.96306 z m 204.6715,0.36083 c -7.424,-1.43334 -14.56108,-6.69696 -17.76543,-13.10213 l -1.82145,-3.64078 v -7.86336 c 0,-6.08908 0.19818,-8.39663 0.8782,-10.22691 2.97729,-8.01333 12.00528,-14.92423 21.01914,-16.09011 2.32903,-0.30123 20.88211,-0.44776 45.88017,-0.36236 l 41.96985,0.14346 0.17105,1.43106 c 0.32953,2.75695 -0.29597,3.72197 -3.42342,5.28145 l -3.004,1.49795 -39.10239,0.0177 c -21.50631,0.01 -40.04085,0.21798 -41.18786,0.46213 -5.29846,1.12776 -9.9271,4.77009 -12.10381,9.52462 -1.16609,2.5471 -1.26334,3.31699 -1.09229,8.64761 0.15567,4.85104 0.39842,6.28035 1.41997,8.3592 1.46145,2.97408 4.7076,5.61859 8.75612,7.13335 2.81021,1.05142 3.77546,1.07591 43.46777,1.10274 l 40.59372,0.0274 1.69744,1.14393 c 2.1372,1.44025 4.1594,4.39732 3.95993,5.79063 -0.15173,1.06004 -0.29385,1.06372 -43.9469,1.14089 -25.93198,0.0459 -44.84336,-0.12494 -46.36581,-0.41897 z m 152.70251,-0.0495 c -0.13735,-0.35844 -0.18858,-11.91321 -0.1139,-25.67724 l 0.13577,-25.02553 h 4.69229 4.69228 l 0.26068,10.42731 0.2607,10.42731 44.80839,0.1332 c 28.74452,0.0855 44.99157,-0.0498 45.31926,-0.37756 0.29889,-0.29889 0.49154,-4.35608 0.46434,-9.77852 -0.0256,-5.09723 0.0693,-9.68683 0.21103,-10.19911 0.2274,-0.82235 0.81738,-0.91392 5.039,-0.78203 l 4.78147,0.14936 0.13538,24.96598 c 0.0977,18.001 -0.0292,25.16439 -0.45487,25.67723 -0.4068,0.49013 -1.86147,0.71126 -4.67905,0.71126 -3.39658,0 -4.17337,-0.15803 -4.58861,-0.93404 -0.27497,-0.51373 -0.48085,-1.27624 -0.45758,-1.69444 0.0232,-0.4182 0.006,-4.92609 -0.0398,-10.01748 l -0.0822,-9.25713 -45.22842,0.13321 -45.22844,0.13321 -0.14168,10.40356 c -0.10247,7.52403 -0.31896,10.51616 -0.78206,10.81036 -1.09901,0.69816 -8.72295,0.50429 -9.00396,-0.22897 z"
       id="path5-9" />
    <path
       style="fill:#fffbfb;fill-opacity:1;stroke:#000000;stroke-width:0.02"
       d="M 191.37546,687.47954 H 497.5762 v 0"
       id="path4" />
  </g>
</svg>
